<mxfile host="drawio-plugin" modified="2023-01-28T15:38:14.058Z" agent="5.0 (Macintosh; Intel Mac OS X 10_15_7) AppleWebKit/537.36 (KHTML, like Gecko) Chrome/98.0.4758.102 Safari/537.36" etag="Tk1LHXsSmTvM4zCInm7S" version="15.5.4" type="embed" pages="3"><diagram id="CB76j-QL4G5kRngm_N2Z" name="ACTIVITY"><mxGraphModel dx="1492" dy="1326" grid="1" gridSize="10" guides="1" tooltips="1" connect="1" arrows="1" fold="1" page="1" pageScale="1" pageWidth="1100" pageHeight="850" math="0" shadow="0"><root><mxCell id="0"/><mxCell id="1" parent="0"/><mxCell id="-D-tKzF2mJ5fyYn2RXqx-1" value="ACTIVITY - DIAGRAM - BAS" style="text;html=1;resizable=0;autosize=1;align=center;verticalAlign=middle;points=[];fillColor=none;strokeColor=none;rounded=0;fontSize=28;fontColor=default;" parent="1" vertex="1"><mxGeometry x="360" y="60" width="380" height="40" as="geometry"/></mxCell><mxCell id="-D-tKzF2mJ5fyYn2RXqx-2" value="Describes behaviour of the system in terms of activities" style="text;html=1;resizable=0;autosize=1;align=center;verticalAlign=middle;points=[];fillColor=none;strokeColor=none;rounded=0;fontSize=16;fontColor=default;" parent="1" vertex="1"><mxGeometry x="345" y="120" width="410" height="20" as="geometry"/></mxCell><mxCell id="hfpbyHfPokEdL2VkX-ZZ-2" value="" style="html=1;verticalAlign=bottom;endArrow=open;endSize=8;strokeColor=default;sourcePerimeterSpacing=8;targetPerimeterSpacing=8;entryX=0;entryY=0.5;entryDx=0;entryDy=0;fontColor=default;exitX=1;exitY=0.5;exitDx=0;exitDy=0;" parent="1" source="hfpbyHfPokEdL2VkX-ZZ-52" target="hfpbyHfPokEdL2VkX-ZZ-5" edge="1"><mxGeometry relative="1" as="geometry"><mxPoint x="70" y="380" as="targetPoint"/><mxPoint x="-1.9999999999863576" y="380" as="sourcePoint"/></mxGeometry></mxCell><mxCell id="hfpbyHfPokEdL2VkX-ZZ-5" value="Search jobs" style="html=1;align=center;verticalAlign=top;rounded=1;absoluteArcSize=1;arcSize=10;dashed=0;labelBackgroundColor=none;hachureGap=4;fontColor=default;fillColor=default;" parent="1" vertex="1"><mxGeometry x="80" y="360" width="140" height="40" as="geometry"/></mxCell><mxCell id="hfpbyHfPokEdL2VkX-ZZ-6" value="Query linkedin" style="html=1;align=center;verticalAlign=top;rounded=1;absoluteArcSize=1;arcSize=10;dashed=0;labelBackgroundColor=none;hachureGap=4;fontColor=default;fillColor=default;" parent="1" vertex="1"><mxGeometry x="300" y="309" width="140" height="40" as="geometry"/></mxCell><mxCell id="hfpbyHfPokEdL2VkX-ZZ-7" value="Query indeed" style="html=1;align=center;verticalAlign=top;rounded=1;absoluteArcSize=1;arcSize=10;dashed=0;labelBackgroundColor=none;hachureGap=4;fontColor=default;fillColor=default;" parent="1" vertex="1"><mxGeometry x="300" y="360" width="140" height="40" as="geometry"/></mxCell><mxCell id="hfpbyHfPokEdL2VkX-ZZ-8" value="Query builtin" style="html=1;align=center;verticalAlign=top;rounded=1;absoluteArcSize=1;arcSize=10;dashed=0;labelBackgroundColor=none;hachureGap=4;fontColor=default;fillColor=default;" parent="1" vertex="1"><mxGeometry x="300" y="410" width="140" height="40" as="geometry"/></mxCell><mxCell id="hfpbyHfPokEdL2VkX-ZZ-10" value="View results" style="html=1;align=center;verticalAlign=top;rounded=1;absoluteArcSize=1;arcSize=10;dashed=0;labelBackgroundColor=none;hachureGap=4;fontColor=default;fillColor=default;" parent="1" vertex="1"><mxGeometry x="520" y="361" width="140" height="40" as="geometry"/></mxCell><mxCell id="hfpbyHfPokEdL2VkX-ZZ-11" value="Interested" style="rhombus;whiteSpace=wrap;html=1;fontColor=default;" parent="1" vertex="1"><mxGeometry x="700" y="340" width="80" height="80" as="geometry"/></mxCell><mxCell id="hfpbyHfPokEdL2VkX-ZZ-13" value="Applied now" style="rhombus;whiteSpace=wrap;html=1;fontColor=default;" parent="1" vertex="1"><mxGeometry x="930" y="338" width="80" height="80" as="geometry"/></mxCell><mxCell id="hfpbyHfPokEdL2VkX-ZZ-14" value="Mark did apply" style="html=1;align=center;verticalAlign=top;rounded=1;absoluteArcSize=1;arcSize=10;dashed=0;labelBackgroundColor=none;hachureGap=4;fontColor=default;fillColor=default;" parent="1" vertex="1"><mxGeometry x="900" y="247" width="140" height="40" as="geometry"/></mxCell><mxCell id="hfpbyHfPokEdL2VkX-ZZ-15" value="Mark plan apply" style="html=1;align=center;verticalAlign=top;rounded=1;absoluteArcSize=1;arcSize=10;dashed=0;labelBackgroundColor=none;hachureGap=4;fontColor=default;fillColor=default;" parent="1" vertex="1"><mxGeometry x="900" y="467" width="140" height="40" as="geometry"/></mxCell><mxCell id="hfpbyHfPokEdL2VkX-ZZ-17" value="" style="endArrow=open;endFill=1;endSize=12;html=1;rounded=0;entryX=0.487;entryY=0.662;entryDx=0;entryDy=0;entryPerimeter=0;exitX=1;exitY=0.5;exitDx=0;exitDy=0;fontColor=default;" parent="1" source="hfpbyHfPokEdL2VkX-ZZ-5" target="hfpbyHfPokEdL2VkX-ZZ-41" edge="1"><mxGeometry width="160" relative="1" as="geometry"><mxPoint x="157.4199999999999" y="302.2000000000003" as="sourcePoint"/><mxPoint x="250.14000000000033" y="379.7199999999998" as="targetPoint"/></mxGeometry></mxCell><mxCell id="hfpbyHfPokEdL2VkX-ZZ-24" value="" style="endArrow=open;endFill=1;endSize=12;html=1;rounded=0;entryX=0;entryY=0.5;entryDx=0;entryDy=0;exitX=0.511;exitY=0.6;exitDx=0;exitDy=0;exitPerimeter=0;fontColor=default;" parent="1" source="hfpbyHfPokEdL2VkX-ZZ-45" target="hfpbyHfPokEdL2VkX-ZZ-10" edge="1"><mxGeometry width="160" relative="1" as="geometry"><mxPoint x="490.37999999999965" y="381.4799999999998" as="sourcePoint"/><mxPoint x="489.3900000000003" y="389.76" as="targetPoint"/></mxGeometry></mxCell><mxCell id="hfpbyHfPokEdL2VkX-ZZ-25" value="" style="endArrow=open;endFill=1;endSize=12;html=1;rounded=0;entryX=0;entryY=0.5;entryDx=0;entryDy=0;exitX=1;exitY=0.5;exitDx=0;exitDy=0;fontColor=default;" parent="1" source="hfpbyHfPokEdL2VkX-ZZ-10" target="hfpbyHfPokEdL2VkX-ZZ-11" edge="1"><mxGeometry width="160" relative="1" as="geometry"><mxPoint x="669.9999999999999" y="380.13" as="sourcePoint"/><mxPoint x="698.58" y="379.77" as="targetPoint"/></mxGeometry></mxCell><mxCell id="hfpbyHfPokEdL2VkX-ZZ-26" value="" style="endArrow=open;endFill=1;endSize=12;html=1;rounded=0;entryX=0;entryY=0.5;entryDx=0;entryDy=0;exitX=1;exitY=0.5;exitDx=0;exitDy=0;fontColor=default;" parent="1" source="hfpbyHfPokEdL2VkX-ZZ-11" target="hfpbyHfPokEdL2VkX-ZZ-13" edge="1"><mxGeometry width="160" relative="1" as="geometry"><mxPoint x="790" y="376.73" as="sourcePoint"/><mxPoint x="830" y="376.73" as="targetPoint"/></mxGeometry></mxCell><mxCell id="hfpbyHfPokEdL2VkX-ZZ-31" value="Yes" style="edgeLabel;html=1;align=center;verticalAlign=middle;resizable=0;points=[];fontColor=default;" parent="hfpbyHfPokEdL2VkX-ZZ-26" vertex="1" connectable="0"><mxGeometry x="-0.5551" relative="1" as="geometry"><mxPoint as="offset"/></mxGeometry></mxCell><mxCell id="hfpbyHfPokEdL2VkX-ZZ-27" value="" style="endArrow=open;endFill=1;endSize=12;html=1;rounded=0;exitX=0.5;exitY=0;exitDx=0;exitDy=0;entryX=0.5;entryY=1;entryDx=0;entryDy=0;fontColor=default;" parent="1" source="hfpbyHfPokEdL2VkX-ZZ-13" target="hfpbyHfPokEdL2VkX-ZZ-14" edge="1"><mxGeometry width="160" relative="1" as="geometry"><mxPoint x="840" y="384" as="sourcePoint"/><mxPoint x="940" y="384" as="targetPoint"/></mxGeometry></mxCell><mxCell id="hfpbyHfPokEdL2VkX-ZZ-33" value="Yes" style="edgeLabel;html=1;align=center;verticalAlign=middle;resizable=0;points=[];fontColor=default;" parent="hfpbyHfPokEdL2VkX-ZZ-27" vertex="1" connectable="0"><mxGeometry x="-0.1586" relative="1" as="geometry"><mxPoint as="offset"/></mxGeometry></mxCell><mxCell id="hfpbyHfPokEdL2VkX-ZZ-28" value="" style="endArrow=open;endFill=1;endSize=12;html=1;rounded=0;exitX=0.5;exitY=1;exitDx=0;exitDy=0;entryX=0.5;entryY=0;entryDx=0;entryDy=0;fontColor=default;" parent="1" source="hfpbyHfPokEdL2VkX-ZZ-13" target="hfpbyHfPokEdL2VkX-ZZ-15" edge="1"><mxGeometry width="160" relative="1" as="geometry"><mxPoint x="1020" y="384" as="sourcePoint"/><mxPoint x="1050" y="384" as="targetPoint"/></mxGeometry></mxCell><mxCell id="hfpbyHfPokEdL2VkX-ZZ-34" value="No" style="edgeLabel;html=1;align=center;verticalAlign=middle;resizable=0;points=[];fontColor=default;" parent="hfpbyHfPokEdL2VkX-ZZ-28" vertex="1" connectable="0"><mxGeometry x="-0.3922" relative="1" as="geometry"><mxPoint as="offset"/></mxGeometry></mxCell><mxCell id="hfpbyHfPokEdL2VkX-ZZ-29" value="" style="endArrow=open;endFill=1;endSize=12;html=1;rounded=0;exitX=1;exitY=0.5;exitDx=0;exitDy=0;entryX=1;entryY=0.5;entryDx=0;entryDy=0;fontColor=default;" parent="1" source="hfpbyHfPokEdL2VkX-ZZ-15" target="hfpbyHfPokEdL2VkX-ZZ-13" edge="1"><mxGeometry width="160" relative="1" as="geometry"><mxPoint x="980" y="424" as="sourcePoint"/><mxPoint x="1040" y="367" as="targetPoint"/><Array as="points"><mxPoint x="1070" y="487"/><mxPoint x="1070" y="377"/></Array></mxGeometry></mxCell><mxCell id="hfpbyHfPokEdL2VkX-ZZ-30" value="" style="endArrow=open;endFill=1;endSize=12;html=1;rounded=0;exitX=0.5;exitY=1;exitDx=0;exitDy=0;fontColor=default;entryX=0.498;entryY=0.656;entryDx=0;entryDy=0;entryPerimeter=0;" parent="1" source="hfpbyHfPokEdL2VkX-ZZ-11" target="hfpbyHfPokEdL2VkX-ZZ-49" edge="1"><mxGeometry width="160" relative="1" as="geometry"><mxPoint x="790" y="390" as="sourcePoint"/><mxPoint x="740" y="470" as="targetPoint"/></mxGeometry></mxCell><mxCell id="hfpbyHfPokEdL2VkX-ZZ-32" value="No" style="edgeLabel;html=1;align=center;verticalAlign=middle;resizable=0;points=[];fontColor=default;" parent="hfpbyHfPokEdL2VkX-ZZ-30" vertex="1" connectable="0"><mxGeometry x="-0.31" y="-2" relative="1" as="geometry"><mxPoint as="offset"/></mxGeometry></mxCell><mxCell id="hfpbyHfPokEdL2VkX-ZZ-36" value="Delete job" style="html=1;align=center;verticalAlign=top;rounded=1;absoluteArcSize=1;arcSize=10;dashed=0;labelBackgroundColor=none;hachureGap=4;fontColor=default;fillColor=default;" parent="1" vertex="1"><mxGeometry x="590" y="520" width="140" height="40" as="geometry"/></mxCell><mxCell id="hfpbyHfPokEdL2VkX-ZZ-37" value="Mute company" style="html=1;align=center;verticalAlign=top;rounded=1;absoluteArcSize=1;arcSize=10;dashed=0;labelBackgroundColor=none;hachureGap=4;fontColor=default;fillColor=default;" parent="1" vertex="1"><mxGeometry x="745" y="520" width="140" height="40" as="geometry"/></mxCell><mxCell id="hfpbyHfPokEdL2VkX-ZZ-38" value="" style="endArrow=open;endFill=1;endSize=12;html=1;rounded=0;exitX=0.75;exitY=0.5;exitDx=0;exitDy=0;exitPerimeter=0;entryX=0.5;entryY=0;entryDx=0;entryDy=0;fontColor=default;" parent="1" source="hfpbyHfPokEdL2VkX-ZZ-49" target="hfpbyHfPokEdL2VkX-ZZ-36" edge="1"><mxGeometry width="160" relative="1" as="geometry"><mxPoint x="737.9199999999996" y="485.02" as="sourcePoint"/><mxPoint x="660" y="530" as="targetPoint"/></mxGeometry></mxCell><mxCell id="hfpbyHfPokEdL2VkX-ZZ-40" value="" style="endArrow=open;endFill=1;endSize=12;html=1;rounded=0;exitX=0.25;exitY=0.5;exitDx=0;exitDy=0;exitPerimeter=0;entryX=0.5;entryY=0;entryDx=0;entryDy=0;fontColor=default;" parent="1" source="hfpbyHfPokEdL2VkX-ZZ-49" target="hfpbyHfPokEdL2VkX-ZZ-37" edge="1"><mxGeometry width="160" relative="1" as="geometry"><mxPoint x="738.0799999999995" y="484.95000000000005" as="sourcePoint"/><mxPoint x="670" y="530" as="targetPoint"/></mxGeometry></mxCell><mxCell id="hfpbyHfPokEdL2VkX-ZZ-41" value="" style="shape=line;html=1;strokeWidth=6;strokeColor=default;labelBackgroundColor=none;hachureGap=4;fontColor=default;fillColor=none;rotation=90;" parent="1" vertex="1"><mxGeometry x="200" y="376" width="110" height="10" as="geometry"/></mxCell><mxCell id="hfpbyHfPokEdL2VkX-ZZ-42" value="" style="html=1;verticalAlign=bottom;endArrow=open;endSize=8;strokeColor=default;fontColor=default;sourcePerimeterSpacing=8;targetPerimeterSpacing=8;entryX=0;entryY=0.5;entryDx=0;entryDy=0;exitX=0.25;exitY=0.5;exitDx=0;exitDy=0;exitPerimeter=0;" parent="1" source="hfpbyHfPokEdL2VkX-ZZ-41" target="hfpbyHfPokEdL2VkX-ZZ-6" edge="1"><mxGeometry relative="1" as="geometry"><mxPoint x="300" y="400" as="targetPoint"/></mxGeometry></mxCell><mxCell id="hfpbyHfPokEdL2VkX-ZZ-43" value="" style="html=1;verticalAlign=bottom;endArrow=open;endSize=8;strokeColor=default;fontColor=default;sourcePerimeterSpacing=8;targetPerimeterSpacing=8;entryX=0;entryY=0.5;entryDx=0;entryDy=0;exitX=0.494;exitY=0.396;exitDx=0;exitDy=0;exitPerimeter=0;" parent="1" source="hfpbyHfPokEdL2VkX-ZZ-41" target="hfpbyHfPokEdL2VkX-ZZ-7" edge="1"><mxGeometry relative="1" as="geometry"><mxPoint x="310" y="330" as="targetPoint"/><mxPoint x="288" y="358.9142857142856" as="sourcePoint"/></mxGeometry></mxCell><mxCell id="hfpbyHfPokEdL2VkX-ZZ-44" value="" style="html=1;verticalAlign=bottom;endArrow=open;endSize=8;strokeColor=default;fontColor=default;sourcePerimeterSpacing=8;targetPerimeterSpacing=8;entryX=0;entryY=0.5;entryDx=0;entryDy=0;exitX=0.75;exitY=0.5;exitDx=0;exitDy=0;exitPerimeter=0;" parent="1" source="hfpbyHfPokEdL2VkX-ZZ-41" target="hfpbyHfPokEdL2VkX-ZZ-8" edge="1"><mxGeometry relative="1" as="geometry"><mxPoint x="310" y="387" as="targetPoint"/><mxPoint x="276.0400000000002" y="375.34000000000015" as="sourcePoint"/></mxGeometry></mxCell><mxCell id="hfpbyHfPokEdL2VkX-ZZ-45" value="" style="shape=line;html=1;strokeWidth=6;strokeColor=default;labelBackgroundColor=none;hachureGap=4;fontColor=default;fillColor=none;rotation=90;" parent="1" vertex="1"><mxGeometry x="420" y="375" width="110" height="10" as="geometry"/></mxCell><mxCell id="hfpbyHfPokEdL2VkX-ZZ-46" value="" style="html=1;verticalAlign=bottom;endArrow=open;endSize=8;strokeColor=default;fontColor=default;sourcePerimeterSpacing=8;targetPerimeterSpacing=8;exitX=1;exitY=0.5;exitDx=0;exitDy=0;entryX=0.238;entryY=0.697;entryDx=0;entryDy=0;entryPerimeter=0;" parent="1" source="hfpbyHfPokEdL2VkX-ZZ-6" target="hfpbyHfPokEdL2VkX-ZZ-45" edge="1"><mxGeometry relative="1" as="geometry"><mxPoint x="310" y="330" as="targetPoint"/><mxPoint x="265" y="363.5" as="sourcePoint"/></mxGeometry></mxCell><mxCell id="hfpbyHfPokEdL2VkX-ZZ-47" value="" style="html=1;verticalAlign=bottom;endArrow=open;endSize=8;strokeColor=default;fontColor=default;sourcePerimeterSpacing=8;targetPerimeterSpacing=8;exitX=1;exitY=0.5;exitDx=0;exitDy=0;entryX=0.518;entryY=0.44;entryDx=0;entryDy=0;entryPerimeter=0;" parent="1" source="hfpbyHfPokEdL2VkX-ZZ-7" target="hfpbyHfPokEdL2VkX-ZZ-45" edge="1"><mxGeometry relative="1" as="geometry"><mxPoint x="475" y="353.5" as="targetPoint"/><mxPoint x="450" y="330" as="sourcePoint"/></mxGeometry></mxCell><mxCell id="hfpbyHfPokEdL2VkX-ZZ-48" value="" style="html=1;verticalAlign=bottom;endArrow=open;endSize=8;strokeColor=default;fontColor=default;sourcePerimeterSpacing=8;targetPerimeterSpacing=8;exitX=1;exitY=0.5;exitDx=0;exitDy=0;entryX=0.772;entryY=0.733;entryDx=0;entryDy=0;entryPerimeter=0;" parent="1" source="hfpbyHfPokEdL2VkX-ZZ-8" target="hfpbyHfPokEdL2VkX-ZZ-45" edge="1"><mxGeometry relative="1" as="geometry"><mxPoint x="475.5999999999999" y="382.98" as="targetPoint"/><mxPoint x="450" y="387" as="sourcePoint"/></mxGeometry></mxCell><mxCell id="hfpbyHfPokEdL2VkX-ZZ-49" value="" style="shape=line;html=1;strokeWidth=6;strokeColor=default;labelBackgroundColor=none;hachureGap=4;fontColor=default;fillColor=none;rotation=-180;" parent="1" vertex="1"><mxGeometry x="685" y="470" width="110" height="10" as="geometry"/></mxCell><mxCell id="hfpbyHfPokEdL2VkX-ZZ-52" value="" style="ellipse;fillColor=#000000;strokeColor=none;labelBackgroundColor=none;hachureGap=4;fontColor=default;" parent="1" vertex="1"><mxGeometry x="10" y="365" width="30" height="30" as="geometry"/></mxCell><mxCell id="hfpbyHfPokEdL2VkX-ZZ-53" value="" style="ellipse;html=1;shape=endState;fillColor=#000000;strokeColor=#000000;labelBackgroundColor=none;hachureGap=4;fontColor=default;" parent="1" vertex="1"><mxGeometry x="955" y="172" width="30" height="30" as="geometry"/></mxCell><mxCell id="hfpbyHfPokEdL2VkX-ZZ-56" value="" style="endArrow=open;endFill=1;endSize=12;html=1;rounded=0;exitX=0.5;exitY=0;exitDx=0;exitDy=0;entryX=0.5;entryY=1;entryDx=0;entryDy=0;fontColor=default;" parent="1" source="hfpbyHfPokEdL2VkX-ZZ-14" target="hfpbyHfPokEdL2VkX-ZZ-53" edge="1"><mxGeometry width="160" relative="1" as="geometry"><mxPoint x="969.8299999999996" y="240.99999999999977" as="sourcePoint"/><mxPoint x="969.8299999999996" y="190" as="targetPoint"/></mxGeometry></mxCell></root></mxGraphModel></diagram><diagram id="eOXQSuzVNMP1eHo4WYqC" name="USE-CASE"><mxGraphModel dx="3730" dy="4165" grid="1" gridSize="10" guides="1" tooltips="1" connect="1" arrows="1" fold="1" page="1" pageScale="1" pageWidth="1100" pageHeight="850" math="0" shadow="0"><root><mxCell id="0"/><mxCell id="1" parent="0"/><mxCell id="DLbAejF3uNQdCEBCxdvz-1" value="Job Seeker" style="shape=umlActor;verticalLabelPosition=bottom;verticalAlign=top;html=1;" parent="1" vertex="1"><mxGeometry x="580" y="-100" width="30" height="60" as="geometry"/></mxCell><mxCell id="DLbAejF3uNQdCEBCxdvz-3" value="query jobs" style="ellipse;whiteSpace=wrap;html=1;" parent="1" vertex="1"><mxGeometry x="180" y="-390" width="120" height="80" as="geometry"/></mxCell><mxCell id="DLbAejF3uNQdCEBCxdvz-4" value="query&lt;br&gt;linkedin" style="ellipse;whiteSpace=wrap;html=1;labelBackgroundColor=none;" parent="1" vertex="1"><mxGeometry x="20" y="-465" width="120" height="80" as="geometry"/></mxCell><mxCell id="DLbAejF3uNQdCEBCxdvz-5" value="query&lt;br&gt;indeed" style="ellipse;whiteSpace=wrap;html=1;" parent="1" vertex="1"><mxGeometry x="60" y="-290" width="120" height="80" as="geometry"/></mxCell><mxCell id="DLbAejF3uNQdCEBCxdvz-6" value="Use" style="endArrow=open;endSize=12;dashed=1;html=1;rounded=0;exitX=0;exitY=0.5;exitDx=0;exitDy=0;" parent="1" source="DLbAejF3uNQdCEBCxdvz-20" target="DLbAejF3uNQdCEBCxdvz-3" edge="1"><mxGeometry width="160" relative="1" as="geometry"><mxPoint x="520" y="-60" as="sourcePoint"/><mxPoint x="680" y="-60" as="targetPoint"/></mxGeometry></mxCell><mxCell id="DLbAejF3uNQdCEBCxdvz-7" value="Use" style="endArrow=open;endSize=12;dashed=1;html=1;rounded=0;exitX=0;exitY=0;exitDx=0;exitDy=0;" parent="1" source="DLbAejF3uNQdCEBCxdvz-3" target="DLbAejF3uNQdCEBCxdvz-4" edge="1"><mxGeometry width="160" relative="1" as="geometry"><mxPoint x="620" y="-100" as="sourcePoint"/><mxPoint x="780" y="-100" as="targetPoint"/></mxGeometry></mxCell><mxCell id="DLbAejF3uNQdCEBCxdvz-8" value="Use" style="endArrow=open;endSize=12;dashed=1;html=1;rounded=0;" parent="1" source="DLbAejF3uNQdCEBCxdvz-3" target="DLbAejF3uNQdCEBCxdvz-5" edge="1"><mxGeometry width="160" relative="1" as="geometry"><mxPoint x="593.28" y="30" as="sourcePoint"/><mxPoint x="639.9979882264861" y="-16.717988226486113" as="targetPoint"/></mxGeometry></mxCell><mxCell id="DLbAejF3uNQdCEBCxdvz-10" value="include" style="endArrow=open;endSize=12;dashed=1;html=1;rounded=0;" parent="1" source="DLbAejF3uNQdCEBCxdvz-3" target="KrOVYnNyFaEKFl_jv8hP-5" edge="1"><mxGeometry width="160" relative="1" as="geometry"><mxPoint x="530" y="40" as="sourcePoint"/><mxPoint x="200" y="-200" as="targetPoint"/></mxGeometry></mxCell><mxCell id="DLbAejF3uNQdCEBCxdvz-11" value="mark deleted" style="ellipse;whiteSpace=wrap;html=1;" parent="1" vertex="1"><mxGeometry x="430" y="-530" width="120" height="80" as="geometry"/></mxCell><mxCell id="DLbAejF3uNQdCEBCxdvz-20" value="select jobs worth applying" style="ellipse;whiteSpace=wrap;html=1;" parent="1" vertex="1"><mxGeometry x="535" y="-290" width="120" height="80" as="geometry"/></mxCell><mxCell id="DLbAejF3uNQdCEBCxdvz-22" value="view muted companies" style="ellipse;whiteSpace=wrap;html=1;" parent="1" vertex="1"><mxGeometry x="970" y="-350" width="120" height="80" as="geometry"/></mxCell><mxCell id="DLbAejF3uNQdCEBCxdvz-24" value="USE-CASE DIAGRAM&amp;nbsp; - BAS" style="text;html=1;resizable=0;autosize=1;align=center;verticalAlign=middle;points=[];fillColor=none;strokeColor=none;rounded=0;fontSize=28;" parent="1" vertex="1"><mxGeometry x="375" y="-840" width="390" height="40" as="geometry"/></mxCell><mxCell id="3MI0oWs88aS0b8ITTxvC-1" value="Describes functionality of the system form the user's point of view" style="text;html=1;resizable=0;autosize=1;align=center;verticalAlign=middle;points=[];fillColor=none;strokeColor=none;rounded=0;fontSize=16;" parent="1" vertex="1"><mxGeometry x="330" y="-790" width="480" height="20" as="geometry"/></mxCell><mxCell id="zZ-7p_Oj3eoCvQajI9cv-1" value="unmute muted company" style="ellipse;whiteSpace=wrap;html=1;hachureGap=4;" parent="1" vertex="1"><mxGeometry x="755" y="-240" width="120" height="80" as="geometry"/></mxCell><mxCell id="zZ-7p_Oj3eoCvQajI9cv-3" value="Use" style="endArrow=open;endSize=12;dashed=1;html=1;rounded=0;sourcePerimeterSpacing=8;targetPerimeterSpacing=8;curved=1;entryX=0.024;entryY=0.719;entryDx=0;entryDy=0;exitX=0.773;exitY=0.036;exitDx=0;exitDy=0;exitPerimeter=0;entryPerimeter=0;" parent="1" source="DLbAejF3uNQdCEBCxdvz-1" target="zZ-7p_Oj3eoCvQajI9cv-1" edge="1"><mxGeometry width="160" relative="1" as="geometry"><mxPoint x="530" y="-30" as="sourcePoint"/><mxPoint x="710" y="249.5" as="targetPoint"/></mxGeometry></mxCell><mxCell id="zZ-7p_Oj3eoCvQajI9cv-5" value="mute specific companies" style="ellipse;whiteSpace=wrap;html=1;hachureGap=4;" parent="1" vertex="1"><mxGeometry x="720" y="-545" width="120" height="80" as="geometry"/></mxCell><mxCell id="KrOVYnNyFaEKFl_jv8hP-1" value="&lt;span style=&quot;-webkit-font-smoothing: antialiased; font-family: Helvetica; font-size: 12px; font-style: normal; font-variant-ligatures: normal; font-variant-caps: normal; font-weight: 400; letter-spacing: normal; orphans: 2; text-align: left; text-indent: 0px; text-transform: none; widows: 2; word-spacing: 0px; -webkit-text-stroke-width: 0px; text-decoration-thickness: initial; text-decoration-style: initial; text-decoration-color: initial;&quot;&gt;The problem that is being solved:&lt;/span&gt;&lt;br style=&quot;-webkit-font-smoothing: antialiased; font-family: Helvetica; font-size: 12px; font-style: normal; font-variant-ligatures: normal; font-variant-caps: normal; font-weight: 400; letter-spacing: normal; orphans: 2; text-align: left; text-indent: 0px; text-transform: none; widows: 2; word-spacing: 0px; -webkit-text-stroke-width: 0px; text-decoration-thickness: initial; text-decoration-style: initial; text-decoration-color: initial;&quot;&gt;&lt;blockquote style=&quot;-webkit-font-smoothing: antialiased; font-family: Helvetica; font-size: 12px; font-style: normal; font-variant-ligatures: normal; font-variant-caps: normal; font-weight: 400; letter-spacing: normal; orphans: 2; text-align: left; text-indent: 0px; text-transform: none; widows: 2; word-spacing: 0px; -webkit-text-stroke-width: 0px; text-decoration-thickness: initial; text-decoration-style: initial; text-decoration-color: initial; margin: 0px 0px 0px 40px; border: none; padding: 0px;&quot;&gt;&lt;/blockquote&gt;&lt;ul style=&quot;-webkit-font-smoothing: antialiased; font-family: Helvetica; font-size: 12px; font-style: normal; font-variant-ligatures: normal; font-variant-caps: normal; font-weight: 400; letter-spacing: normal; orphans: 2; text-align: left; text-indent: 0px; text-transform: none; widows: 2; word-spacing: 0px; -webkit-text-stroke-width: 0px; text-decoration-thickness: initial; text-decoration-style: initial; text-decoration-color: initial;&quot;&gt;&lt;li style=&quot;-webkit-font-smoothing: antialiased;&quot;&gt;duplicates in job feed;&lt;/li&gt;&lt;li style=&quot;-webkit-font-smoothing: antialiased;&quot;&gt;cards not suitable for bird's eye view;&lt;/li&gt;&lt;li style=&quot;-webkit-font-smoothing: antialiased;&quot;&gt;focus on employers' requirements instead of company attributes and the role's goals and responsibilities.&lt;/li&gt;&lt;/ul&gt;" style="text;strokeColor=none;fillColor=none;html=1;align=center;verticalAlign=middle;whiteSpace=wrap;rounded=0;hachureGap=4;fontColor=default;labelBackgroundColor=none;" parent="1" vertex="1"><mxGeometry x="840" y="-840" width="250" height="135" as="geometry"/></mxCell><mxCell id="KrOVYnNyFaEKFl_jv8hP-2" value="query&lt;br&gt;builtin" style="ellipse;whiteSpace=wrap;html=1;" parent="1" vertex="1"><mxGeometry x="160" y="-570" width="120" height="80" as="geometry"/></mxCell><mxCell id="KrOVYnNyFaEKFl_jv8hP-3" value="Use" style="endArrow=open;endSize=12;dashed=1;html=1;rounded=0;exitX=0.5;exitY=0;exitDx=0;exitDy=0;" parent="1" source="DLbAejF3uNQdCEBCxdvz-3" target="KrOVYnNyFaEKFl_jv8hP-2" edge="1"><mxGeometry width="160" relative="1" as="geometry"><mxPoint x="590.181001109122" y="-241.92783241743132" as="sourcePoint"/><mxPoint x="659.04" y="-272" as="targetPoint"/></mxGeometry></mxCell><mxCell id="KrOVYnNyFaEKFl_jv8hP-4" value="Use" style="endArrow=open;endSize=12;dashed=1;html=1;rounded=0;sourcePerimeterSpacing=8;targetPerimeterSpacing=8;curved=1;exitX=1;exitY=0;exitDx=0;exitDy=0;" parent="1" source="zZ-7p_Oj3eoCvQajI9cv-1" target="DLbAejF3uNQdCEBCxdvz-22" edge="1"><mxGeometry width="160" relative="1" as="geometry"><mxPoint x="550" y="-40" as="sourcePoint"/><mxPoint x="470" y="100" as="targetPoint"/></mxGeometry></mxCell><mxCell id="KrOVYnNyFaEKFl_jv8hP-5" value="authenticate" style="ellipse;whiteSpace=wrap;html=1;labelBackgroundColor=none;" parent="1" vertex="1"><mxGeometry x="390" y="-190" width="120" height="80" as="geometry"/></mxCell><mxCell id="KrOVYnNyFaEKFl_jv8hP-12" value="include" style="endArrow=open;endSize=12;dashed=1;html=1;rounded=0;exitX=0.049;exitY=0.261;exitDx=0;exitDy=0;exitPerimeter=0;entryX=0.965;entryY=0.699;entryDx=0;entryDy=0;entryPerimeter=0;" parent="1" source="zZ-7p_Oj3eoCvQajI9cv-1" target="KrOVYnNyFaEKFl_jv8hP-5" edge="1"><mxGeometry width="160" relative="1" as="geometry"><mxPoint x="569.6393542275388" y="-238.12088657769823" as="sourcePoint"/><mxPoint x="620.3507021700146" y="-234.31850120036097" as="targetPoint"/></mxGeometry></mxCell><mxCell id="KrOVYnNyFaEKFl_jv8hP-13" value="update linkedin user" style="ellipse;whiteSpace=wrap;html=1;labelBackgroundColor=none;" parent="1" vertex="1"><mxGeometry x="20" y="-600" width="120" height="80" as="geometry"/></mxCell><mxCell id="KrOVYnNyFaEKFl_jv8hP-15" value="include" style="endArrow=open;endSize=12;dashed=1;html=1;rounded=0;entryX=0.5;entryY=1;entryDx=0;entryDy=0;exitX=0.5;exitY=0;exitDx=0;exitDy=0;" parent="1" source="DLbAejF3uNQdCEBCxdvz-4" target="KrOVYnNyFaEKFl_jv8hP-13" edge="1"><mxGeometry width="160" relative="1" as="geometry"><mxPoint x="180.00370524926163" y="-312.49730356169096" as="sourcePoint"/><mxPoint x="230.71544092835825" y="-308.69749343616843" as="targetPoint"/></mxGeometry></mxCell><mxCell id="KrOVYnNyFaEKFl_jv8hP-16" value="mark plan apply" style="ellipse;whiteSpace=wrap;html=1;" parent="1" vertex="1"><mxGeometry x="490" y="-625" width="120" height="80" as="geometry"/></mxCell><mxCell id="KrOVYnNyFaEKFl_jv8hP-18" value="mark applied" style="ellipse;whiteSpace=wrap;html=1;" parent="1" vertex="1"><mxGeometry x="635" y="-630" width="120" height="80" as="geometry"/></mxCell><mxCell id="KrOVYnNyFaEKFl_jv8hP-20" value="remove applied" style="ellipse;whiteSpace=wrap;html=1;" parent="1" vertex="1"><mxGeometry x="570" y="-760" width="120" height="80" as="geometry"/></mxCell><mxCell id="KrOVYnNyFaEKFl_jv8hP-21" value="remove plan apply" style="ellipse;whiteSpace=wrap;html=1;" parent="1" vertex="1"><mxGeometry x="300" y="-700" width="120" height="80" as="geometry"/></mxCell><mxCell id="KrOVYnNyFaEKFl_jv8hP-22" value="include" style="endArrow=open;endSize=12;dashed=1;html=1;rounded=0;exitX=0;exitY=0;exitDx=0;exitDy=0;" parent="1" source="KrOVYnNyFaEKFl_jv8hP-18" target="KrOVYnNyFaEKFl_jv8hP-20" edge="1"><mxGeometry width="160" relative="1" as="geometry"><mxPoint x="413.68000000000006" y="-424.79999999999995" as="sourcePoint"/><mxPoint x="380.44000000000005" y="-388.96000000000004" as="targetPoint"/></mxGeometry></mxCell><mxCell id="KrOVYnNyFaEKFl_jv8hP-23" value="include" style="endArrow=open;endSize=12;dashed=1;html=1;rounded=0;entryX=1;entryY=1;entryDx=0;entryDy=0;exitX=0;exitY=0.438;exitDx=0;exitDy=0;exitPerimeter=0;" parent="1" source="KrOVYnNyFaEKFl_jv8hP-16" target="KrOVYnNyFaEKFl_jv8hP-21" edge="1"><mxGeometry width="160" relative="1" as="geometry"><mxPoint x="460" y="-740" as="sourcePoint"/><mxPoint x="390" y="-750" as="targetPoint"/></mxGeometry></mxCell><mxCell id="KrOVYnNyFaEKFl_jv8hP-24" value="make note about job" style="ellipse;whiteSpace=wrap;html=1;" parent="1" vertex="1"><mxGeometry x="780" y="-465" width="120" height="80" as="geometry"/></mxCell><mxCell id="KrOVYnNyFaEKFl_jv8hP-25" value="make note about company" style="ellipse;whiteSpace=wrap;html=1;" parent="1" vertex="1"><mxGeometry x="800" y="-360" width="120" height="80" as="geometry"/></mxCell><mxCell id="KrOVYnNyFaEKFl_jv8hP-26" value="Use" style="endArrow=open;endSize=12;dashed=1;html=1;rounded=0;exitX=0.711;exitY=0.006;exitDx=0;exitDy=0;exitPerimeter=0;entryX=0.5;entryY=1;entryDx=0;entryDy=0;" parent="1" source="DLbAejF3uNQdCEBCxdvz-1" target="DLbAejF3uNQdCEBCxdvz-20" edge="1"><mxGeometry width="160" relative="1" as="geometry"><mxPoint x="601.8499999999999" y="-59.340000000000146" as="sourcePoint"/><mxPoint x="464.4148375799341" y="-143.1066121075628" as="targetPoint"/></mxGeometry></mxCell><mxCell id="KrOVYnNyFaEKFl_jv8hP-27" value="view results of queries" style="ellipse;whiteSpace=wrap;html=1;" parent="1" vertex="1"><mxGeometry x="300" y="-500" width="120" height="80" as="geometry"/></mxCell><mxCell id="KrOVYnNyFaEKFl_jv8hP-28" value="Use" style="endArrow=open;endSize=12;dashed=1;html=1;rounded=0;exitX=0;exitY=0;exitDx=0;exitDy=0;entryX=0.5;entryY=1;entryDx=0;entryDy=0;" parent="1" source="DLbAejF3uNQdCEBCxdvz-20" target="KrOVYnNyFaEKFl_jv8hP-27" edge="1"><mxGeometry width="160" relative="1" as="geometry"><mxPoint x="545" y="-240" as="sourcePoint"/><mxPoint x="471.4009931781857" y="-291.0482565187515" as="targetPoint"/></mxGeometry></mxCell><mxCell id="KrOVYnNyFaEKFl_jv8hP-29" value="Use" style="endArrow=open;endSize=12;dashed=1;html=1;rounded=0;exitX=0.5;exitY=0;exitDx=0;exitDy=0;entryX=0.5;entryY=1;entryDx=0;entryDy=0;" parent="1" source="DLbAejF3uNQdCEBCxdvz-20" target="DLbAejF3uNQdCEBCxdvz-11" edge="1"><mxGeometry width="160" relative="1" as="geometry"><mxPoint x="562.5735931288073" y="-268.28427124746213" as="sourcePoint"/><mxPoint x="370" y="-410" as="targetPoint"/></mxGeometry></mxCell><mxCell id="KrOVYnNyFaEKFl_jv8hP-30" value="Use" style="endArrow=open;endSize=12;dashed=1;html=1;rounded=0;exitX=0.619;exitY=0.021;exitDx=0;exitDy=0;entryX=0.5;entryY=1;entryDx=0;entryDy=0;exitPerimeter=0;" parent="1" source="DLbAejF3uNQdCEBCxdvz-20" target="KrOVYnNyFaEKFl_jv8hP-16" edge="1"><mxGeometry width="160" relative="1" as="geometry"><mxPoint x="605" y="-280" as="sourcePoint"/><mxPoint x="500" y="-440" as="targetPoint"/></mxGeometry></mxCell><mxCell id="KrOVYnNyFaEKFl_jv8hP-31" value="Use" style="endArrow=open;endSize=12;dashed=1;html=1;rounded=0;exitX=1;exitY=0;exitDx=0;exitDy=0;entryX=0.342;entryY=0.971;entryDx=0;entryDy=0;entryPerimeter=0;" parent="1" source="DLbAejF3uNQdCEBCxdvz-20" target="KrOVYnNyFaEKFl_jv8hP-18" edge="1"><mxGeometry width="160" relative="1" as="geometry"><mxPoint x="619.2800000000002" y="-278.31999999999994" as="sourcePoint"/><mxPoint x="560" y="-535" as="targetPoint"/></mxGeometry></mxCell><mxCell id="KrOVYnNyFaEKFl_jv8hP-32" value="Use" style="endArrow=open;endSize=12;dashed=1;html=1;rounded=0;exitX=0.935;exitY=0.255;exitDx=0;exitDy=0;entryX=0;entryY=1;entryDx=0;entryDy=0;exitPerimeter=0;" parent="1" source="DLbAejF3uNQdCEBCxdvz-20" target="zZ-7p_Oj3eoCvQajI9cv-5" edge="1"><mxGeometry width="160" relative="1" as="geometry"><mxPoint x="647.4264068711932" y="-268.2842712474617" as="sourcePoint"/><mxPoint x="686.04" y="-542.3199999999999" as="targetPoint"/></mxGeometry></mxCell><mxCell id="KrOVYnNyFaEKFl_jv8hP-33" value="Use" style="endArrow=open;endSize=12;dashed=1;html=1;rounded=0;exitX=0.971;exitY=0.35;exitDx=0;exitDy=0;exitPerimeter=0;" parent="1" source="DLbAejF3uNQdCEBCxdvz-20" target="KrOVYnNyFaEKFl_jv8hP-24" edge="1"><mxGeometry width="160" relative="1" as="geometry"><mxPoint x="657.2000000000003" y="-259.60000000000014" as="sourcePoint"/><mxPoint x="747.5735931288068" y="-466.7157287525383" as="targetPoint"/></mxGeometry></mxCell><mxCell id="KrOVYnNyFaEKFl_jv8hP-34" value="Use" style="endArrow=open;endSize=12;dashed=1;html=1;rounded=0;exitX=1;exitY=0.459;exitDx=0;exitDy=0;exitPerimeter=0;" parent="1" source="DLbAejF3uNQdCEBCxdvz-20" target="KrOVYnNyFaEKFl_jv8hP-25" edge="1"><mxGeometry width="160" relative="1" as="geometry"><mxPoint x="661.5200000000004" y="-252" as="sourcePoint"/><mxPoint x="813.3154598504257" y="-383.3474100479334" as="targetPoint"/></mxGeometry></mxCell><mxCell id="KrOVYnNyFaEKFl_jv8hP-35" value="include" style="endArrow=open;endSize=12;dashed=1;html=1;rounded=0;exitX=0.083;exitY=0.795;exitDx=0;exitDy=0;exitPerimeter=0;" parent="1" source="DLbAejF3uNQdCEBCxdvz-20" target="KrOVYnNyFaEKFl_jv8hP-5" edge="1"><mxGeometry width="160" relative="1" as="geometry"><mxPoint x="284.3603398162859" y="-307.2086254721289" as="sourcePoint"/><mxPoint x="425.6362862903252" y="-172.7898031580869" as="targetPoint"/></mxGeometry></mxCell></root></mxGraphModel></diagram><diagram id="11uiMYxbGEav4eJtYnzY" name="STATE-CARD"><mxGraphModel dx="1243" dy="1105" grid="1" gridSize="10" guides="1" tooltips="1" connect="1" arrows="1" fold="1" page="1" pageScale="1" pageWidth="850" pageHeight="1100" math="0" shadow="0"><root><mxCell id="RF5M9kMOMLWhfUMc1gJ3-0"/><mxCell id="RF5M9kMOMLWhfUMc1gJ3-1" parent="RF5M9kMOMLWhfUMc1gJ3-0"/><mxCell id="gDNypYiRu3yejFgoG0LW-0" value="" style="ellipse;fillColor=#000000;strokeColor=none;labelBackgroundColor=none;hachureGap=4;fontColor=default;" parent="RF5M9kMOMLWhfUMc1gJ3-1" vertex="1"><mxGeometry x="30" y="395" width="30" height="30" as="geometry"/></mxCell><mxCell id="gDNypYiRu3yejFgoG0LW-1" value="" style="endArrow=open;endFill=1;endSize=12;html=1;rounded=0;entryX=0;entryY=0.5;entryDx=0;entryDy=0;" parent="RF5M9kMOMLWhfUMc1gJ3-1" source="gDNypYiRu3yejFgoG0LW-0" target="Iop3A5gNEpFlIxbc34BC-1" edge="1"><mxGeometry width="160" relative="1" as="geometry"><mxPoint x="330" y="415" as="sourcePoint"/><mxPoint x="180" y="410.0000000000001" as="targetPoint"/></mxGeometry></mxCell><mxCell id="dHONCmrhAql6iJdL6D0c-0" value="Search Card Create" style="edgeLabel;html=1;align=center;verticalAlign=middle;resizable=0;points=[];" parent="gDNypYiRu3yejFgoG0LW-1" vertex="1" connectable="0"><mxGeometry x="0.1707" relative="1" as="geometry"><mxPoint x="-14" y="-10" as="offset"/></mxGeometry></mxCell><mxCell id="5XeSe-Triup3ueGq1cI6-2" value="" style="endArrow=open;endFill=1;endSize=12;html=1;rounded=0;exitX=1;exitY=0.5;exitDx=0;exitDy=0;" parent="RF5M9kMOMLWhfUMc1gJ3-1" source="Iop3A5gNEpFlIxbc34BC-1" edge="1"><mxGeometry width="160" relative="1" as="geometry"><mxPoint x="270" y="415.0000000000001" as="sourcePoint"/><mxPoint x="430" y="410" as="targetPoint"/></mxGeometry></mxCell><mxCell id="5XeSe-Triup3ueGq1cI6-3" value="Start Task" style="edgeLabel;html=1;align=center;verticalAlign=middle;resizable=0;points=[];" parent="5XeSe-Triup3ueGq1cI6-2" vertex="1" connectable="0"><mxGeometry x="-0.1114" y="-3" relative="1" as="geometry"><mxPoint x="4" y="-8" as="offset"/></mxGeometry></mxCell><mxCell id="Iop3A5gNEpFlIxbc34BC-1" value="" style="html=1;align=center;verticalAlign=middle;rounded=1;absoluteArcSize=1;arcSize=10;dashed=1;" parent="RF5M9kMOMLWhfUMc1gJ3-1" vertex="1"><mxGeometry x="200" y="285" width="90" height="250" as="geometry"/></mxCell><mxCell id="Iop3A5gNEpFlIxbc34BC-2" value="Start" style="html=1;align=center;verticalAlign=top;rounded=1;absoluteArcSize=1;arcSize=10;dashed=0;labelBackgroundColor=none;hachureGap=4;fontColor=default;fillColor=default;" parent="RF5M9kMOMLWhfUMc1gJ3-1" vertex="1"><mxGeometry x="210" y="305" width="70" height="40" as="geometry"/></mxCell><mxCell id="Iop3A5gNEpFlIxbc34BC-3" value="Delete &lt;br&gt;Enabled" style="html=1;align=center;verticalAlign=top;rounded=1;absoluteArcSize=1;arcSize=10;dashed=0;labelBackgroundColor=none;hachureGap=4;fontColor=default;fillColor=default;" parent="RF5M9kMOMLWhfUMc1gJ3-1" vertex="1"><mxGeometry x="210" y="360" width="70" height="40" as="geometry"/></mxCell><mxCell id="Iop3A5gNEpFlIxbc34BC-4" value="What, Where&lt;br&gt;Enabled" style="html=1;align=center;verticalAlign=top;rounded=1;absoluteArcSize=1;arcSize=10;dashed=0;labelBackgroundColor=none;hachureGap=4;fontColor=default;fillColor=default;" parent="RF5M9kMOMLWhfUMc1gJ3-1" vertex="1"><mxGeometry x="210" y="415" width="70" height="40" as="geometry"/></mxCell><mxCell id="Iop3A5gNEpFlIxbc34BC-5" value="Filters&lt;br&gt;Enabled" style="html=1;align=center;verticalAlign=top;rounded=1;absoluteArcSize=1;arcSize=10;dashed=0;labelBackgroundColor=none;hachureGap=4;fontColor=default;fillColor=default;" parent="RF5M9kMOMLWhfUMc1gJ3-1" vertex="1"><mxGeometry x="210" y="475" width="70" height="40" as="geometry"/></mxCell><mxCell id="dHONCmrhAql6iJdL6D0c-1" value="" style="html=1;align=center;verticalAlign=middle;rounded=1;absoluteArcSize=1;arcSize=10;dashed=1;" parent="RF5M9kMOMLWhfUMc1gJ3-1" vertex="1"><mxGeometry x="430" y="285" width="90" height="250" as="geometry"/></mxCell><mxCell id="dHONCmrhAql6iJdL6D0c-2" value="Revoke" style="html=1;align=center;verticalAlign=top;rounded=1;absoluteArcSize=1;arcSize=10;dashed=0;labelBackgroundColor=none;hachureGap=4;fontColor=default;fillColor=default;" parent="RF5M9kMOMLWhfUMc1gJ3-1" vertex="1"><mxGeometry x="440" y="305" width="70" height="40" as="geometry"/></mxCell><mxCell id="dHONCmrhAql6iJdL6D0c-3" value="Delete &lt;br&gt;Disabled" style="html=1;align=center;verticalAlign=top;rounded=1;absoluteArcSize=1;arcSize=10;dashed=0;labelBackgroundColor=none;hachureGap=4;fontColor=default;fillColor=default;" parent="RF5M9kMOMLWhfUMc1gJ3-1" vertex="1"><mxGeometry x="440" y="360" width="70" height="40" as="geometry"/></mxCell><mxCell id="dHONCmrhAql6iJdL6D0c-4" value="What, Where&lt;br&gt;Disabled" style="html=1;align=center;verticalAlign=top;rounded=1;absoluteArcSize=1;arcSize=10;dashed=0;labelBackgroundColor=none;hachureGap=4;fontColor=default;fillColor=default;" parent="RF5M9kMOMLWhfUMc1gJ3-1" vertex="1"><mxGeometry x="440" y="415" width="70" height="40" as="geometry"/></mxCell><mxCell id="dHONCmrhAql6iJdL6D0c-5" value="Filters&lt;br&gt;Disabled" style="html=1;align=center;verticalAlign=top;rounded=1;absoluteArcSize=1;arcSize=10;dashed=0;labelBackgroundColor=none;hachureGap=4;fontColor=default;fillColor=default;" parent="RF5M9kMOMLWhfUMc1gJ3-1" vertex="1"><mxGeometry x="440" y="475" width="70" height="40" as="geometry"/></mxCell><mxCell id="dHONCmrhAql6iJdL6D0c-6" value="" style="endArrow=open;endFill=1;endSize=12;html=1;rounded=0;exitX=1;exitY=0.25;exitDx=0;exitDy=0;entryX=0;entryY=0.25;entryDx=0;entryDy=0;" parent="RF5M9kMOMLWhfUMc1gJ3-1" source="dHONCmrhAql6iJdL6D0c-1" target="dHONCmrhAql6iJdL6D0c-8" edge="1"><mxGeometry width="160" relative="1" as="geometry"><mxPoint x="520" y="414.57" as="sourcePoint"/><mxPoint x="690" y="410" as="targetPoint"/></mxGeometry></mxCell><mxCell id="dHONCmrhAql6iJdL6D0c-7" value="Task Succeed" style="edgeLabel;html=1;align=center;verticalAlign=middle;resizable=0;points=[];" parent="dHONCmrhAql6iJdL6D0c-6" vertex="1" connectable="0"><mxGeometry x="-0.1114" y="-3" relative="1" as="geometry"><mxPoint x="4" y="-8" as="offset"/></mxGeometry></mxCell><mxCell id="dHONCmrhAql6iJdL6D0c-8" value="" style="html=1;align=center;verticalAlign=middle;rounded=1;absoluteArcSize=1;arcSize=10;dashed=1;" parent="RF5M9kMOMLWhfUMc1gJ3-1" vertex="1"><mxGeometry x="680" y="285" width="90" height="250" as="geometry"/></mxCell><mxCell id="dHONCmrhAql6iJdL6D0c-9" value="Restart" style="html=1;align=center;verticalAlign=top;rounded=1;absoluteArcSize=1;arcSize=10;dashed=0;labelBackgroundColor=none;hachureGap=4;fontColor=default;fillColor=default;" parent="RF5M9kMOMLWhfUMc1gJ3-1" vertex="1"><mxGeometry x="690" y="305" width="70" height="40" as="geometry"/></mxCell><mxCell id="dHONCmrhAql6iJdL6D0c-10" value="Delete &lt;br&gt;Enabled" style="html=1;align=center;verticalAlign=top;rounded=1;absoluteArcSize=1;arcSize=10;dashed=0;labelBackgroundColor=none;hachureGap=4;fontColor=default;fillColor=default;" parent="RF5M9kMOMLWhfUMc1gJ3-1" vertex="1"><mxGeometry x="690" y="360" width="70" height="40" as="geometry"/></mxCell><mxCell id="dHONCmrhAql6iJdL6D0c-11" value="What, Where&lt;br&gt;Disabled" style="html=1;align=center;verticalAlign=top;rounded=1;absoluteArcSize=1;arcSize=10;dashed=0;labelBackgroundColor=none;hachureGap=4;fontColor=default;fillColor=default;" parent="RF5M9kMOMLWhfUMc1gJ3-1" vertex="1"><mxGeometry x="690" y="415" width="70" height="40" as="geometry"/></mxCell><mxCell id="dHONCmrhAql6iJdL6D0c-12" value="Filters&lt;br&gt;Enabled" style="html=1;align=center;verticalAlign=top;rounded=1;absoluteArcSize=1;arcSize=10;dashed=0;labelBackgroundColor=none;hachureGap=4;fontColor=default;fillColor=default;" parent="RF5M9kMOMLWhfUMc1gJ3-1" vertex="1"><mxGeometry x="690" y="475" width="70" height="40" as="geometry"/></mxCell><mxCell id="dHONCmrhAql6iJdL6D0c-13" value="" style="endArrow=open;endFill=1;endSize=12;html=1;rounded=0;exitX=1;exitY=0.75;exitDx=0;exitDy=0;entryX=0;entryY=0.75;entryDx=0;entryDy=0;" parent="RF5M9kMOMLWhfUMc1gJ3-1" source="dHONCmrhAql6iJdL6D0c-1" target="dHONCmrhAql6iJdL6D0c-8" edge="1"><mxGeometry width="160" relative="1" as="geometry"><mxPoint x="555" y="635" as="sourcePoint"/><mxPoint x="630" y="670" as="targetPoint"/></mxGeometry></mxCell><mxCell id="dHONCmrhAql6iJdL6D0c-14" value="Task Fail" style="edgeLabel;html=1;align=center;verticalAlign=middle;resizable=0;points=[];" parent="dHONCmrhAql6iJdL6D0c-13" vertex="1" connectable="0"><mxGeometry x="-0.1114" y="-3" relative="1" as="geometry"><mxPoint x="4" y="-8" as="offset"/></mxGeometry></mxCell><mxCell id="dHONCmrhAql6iJdL6D0c-20" value="" style="endArrow=open;endFill=1;endSize=12;html=1;rounded=0;exitX=1;exitY=0.5;exitDx=0;exitDy=0;entryX=0.5;entryY=0;entryDx=0;entryDy=0;" parent="RF5M9kMOMLWhfUMc1gJ3-1" source="dHONCmrhAql6iJdL6D0c-8" target="dHONCmrhAql6iJdL6D0c-1" edge="1"><mxGeometry width="160" relative="1" as="geometry"><mxPoint x="779.9999999999998" y="409.64" as="sourcePoint"/><mxPoint x="939.9999999999998" y="409.64" as="targetPoint"/><Array as="points"><mxPoint x="800" y="410"/><mxPoint x="800" y="210"/><mxPoint x="475" y="210"/></Array></mxGeometry></mxCell><mxCell id="dHONCmrhAql6iJdL6D0c-21" value="Restart Task" style="edgeLabel;html=1;align=center;verticalAlign=middle;resizable=0;points=[];" parent="dHONCmrhAql6iJdL6D0c-20" vertex="1" connectable="0"><mxGeometry x="-0.1114" y="-3" relative="1" as="geometry"><mxPoint x="-120" y="-7" as="offset"/></mxGeometry></mxCell><mxCell id="dHONCmrhAql6iJdL6D0c-23" value="" style="endArrow=open;endFill=1;endSize=12;html=1;rounded=0;exitX=0.5;exitY=1;exitDx=0;exitDy=0;entryX=0.5;entryY=0;entryDx=0;entryDy=0;" parent="RF5M9kMOMLWhfUMc1gJ3-1" source="Iop3A5gNEpFlIxbc34BC-1" target="mdjC-opotVpmAvOOmg6a-0" edge="1"><mxGeometry width="160" relative="1" as="geometry"><mxPoint x="270" y="620.0000000000001" as="sourcePoint"/><mxPoint x="245" y="630" as="targetPoint"/></mxGeometry></mxCell><mxCell id="dHONCmrhAql6iJdL6D0c-24" value="Search Card Delete" style="edgeLabel;html=1;align=center;verticalAlign=middle;resizable=0;points=[];" parent="dHONCmrhAql6iJdL6D0c-23" vertex="1" connectable="0"><mxGeometry x="-0.1114" y="-3" relative="1" as="geometry"><mxPoint x="4" y="-8" as="offset"/></mxGeometry></mxCell><mxCell id="mdjC-opotVpmAvOOmg6a-0" value="" style="ellipse;html=1;shape=endState;fillColor=#000000;strokeColor=#000000;labelBackgroundColor=none;hachureGap=4;fontColor=default;" parent="RF5M9kMOMLWhfUMc1gJ3-1" vertex="1"><mxGeometry x="230" y="630" width="30" height="30" as="geometry"/></mxCell><mxCell id="mdjC-opotVpmAvOOmg6a-2" value="" style="ellipse;html=1;shape=endState;fillColor=#000000;strokeColor=#000000;labelBackgroundColor=none;hachureGap=4;fontColor=default;" parent="RF5M9kMOMLWhfUMc1gJ3-1" vertex="1"><mxGeometry x="710" y="630" width="30" height="30" as="geometry"/></mxCell><mxCell id="mdjC-opotVpmAvOOmg6a-3" value="" style="endArrow=open;endFill=1;endSize=12;html=1;rounded=0;entryX=0.5;entryY=0;entryDx=0;entryDy=0;exitX=0.5;exitY=1;exitDx=0;exitDy=0;" parent="RF5M9kMOMLWhfUMc1gJ3-1" source="dHONCmrhAql6iJdL6D0c-8" target="mdjC-opotVpmAvOOmg6a-2" edge="1"><mxGeometry width="160" relative="1" as="geometry"><mxPoint x="725" y="550" as="sourcePoint"/><mxPoint x="725" y="630" as="targetPoint"/></mxGeometry></mxCell><mxCell id="mdjC-opotVpmAvOOmg6a-4" value="Search Card Delete" style="edgeLabel;html=1;align=center;verticalAlign=middle;resizable=0;points=[];" parent="mdjC-opotVpmAvOOmg6a-3" vertex="1" connectable="0"><mxGeometry x="-0.1114" y="-3" relative="1" as="geometry"><mxPoint x="4" y="-8" as="offset"/></mxGeometry></mxCell><mxCell id="Hlqg-y150sgSlyK-GlYQ-0" value="STATE MACHINE - DIAGRAM - BAS" style="text;html=1;resizable=0;autosize=1;align=center;verticalAlign=middle;points=[];fillColor=none;strokeColor=none;rounded=0;fontSize=28;fontColor=default;" parent="RF5M9kMOMLWhfUMc1gJ3-1" vertex="1"><mxGeometry x="175" y="20" width="480" height="40" as="geometry"/></mxCell><mxCell id="Hlqg-y150sgSlyK-GlYQ-1" value="Describes state-dependent behaviour of the Search Card" style="text;html=1;resizable=0;autosize=1;align=center;verticalAlign=middle;points=[];fillColor=none;strokeColor=none;rounded=0;fontSize=16;fontColor=default;" parent="RF5M9kMOMLWhfUMc1gJ3-1" vertex="1"><mxGeometry x="205" y="80" width="420" height="20" as="geometry"/></mxCell></root></mxGraphModel></diagram></mxfile>